<?xml version="1.0" standalone="no"?>
<!DOCTYPE svg PUBLIC "-//W3C//DTD SVG 20010904//EN"
 "http://www.w3.org/TR/2001/REC-SVG-20010904/DTD/svg10.dtd">
<svg version="1.0" xmlns="http://www.w3.org/2000/svg"
 width="250.000000pt" height="250.000000pt" viewBox="0 0 250.000000 250.000000"
 preserveAspectRatio="xMidYMid meet">
<metadata>
Created by potrace 1.14, written by Peter Selinger 2001-2017
</metadata>
<g transform="translate(0.000000,250.000000) scale(0.100000,-0.100000)"
fill="#000000" stroke="none">
<path d="M313 2397 c4 -10 164 -267 171 -273 2 -3 498 -45 696 -59 113 -8 313
-23 445 -34 132 -11 272 -22 312 -24 l72 -4 14 41 c8 22 18 48 21 57 6 13 -14
19 -126 38 -73 12 -209 36 -303 52 -93 16 -237 41 -320 55 -82 14 -229 39
-325 55 -96 17 -238 41 -315 54 -377 65 -349 61 -342 42z"/>
<path d="M561 2406 c5 -5 230 -45 484 -86 105 -17 255 -42 335 -55 80 -14 201
-34 270 -46 69 -11 181 -30 250 -40 69 -11 132 -22 141 -24 13 -4 24 17 54
100 21 58 36 108 34 110 -2 2 -216 9 -474 15 -259 6 -598 15 -755 20 -332 11
-345 11 -339 6z"/>
<path d="M770 1538 l0 -513 83 -52 c46 -29 91 -55 100 -59 16 -6 17 31 17 559
l0 564 -61 7 c-34 3 -79 6 -100 6 l-39 0 0 -512z"/>
<path d="M1130 1409 l0 -614 148 -97 147 -98 3 161 c2 155 2 163 -23 215 -17
35 -29 85 -36 142 -21 195 -29 233 -60 293 l-31 62 76 -7 76 -7 0 269 0 270
-32 5 c-18 4 -86 9 -150 13 l-118 7 0 -614z"/>
<path d="M1602 1733 l3 -257 43 -9 c27 -5 63 -4 97 3 l55 11 0 248 0 248 -77
7 c-42 3 -87 6 -100 6 l-23 0 2 -257z"/>
<path d="M1525 1439 c-27 -5 -80 -7 -117 -3 -42 4 -68 2 -68 -4 0 -5 12 -36
26 -68 17 -38 29 -91 36 -149 17 -160 27 -207 53 -247 32 -48 96 -95 149 -109
23 -6 51 -17 62 -24 19 -12 30 -11 85 11 176 68 211 117 228 312 9 97 31 186
65 264 7 16 0 17 -76 16 -45 -1 -114 -1 -153 0 -38 0 -90 0 -115 -1 -25 -1
-63 1 -85 5 -22 3 -62 2 -90 -3z m489 -39 c-28 -62 -44 -131 -52 -230 -17
-186 -48 -234 -188 -293 l-80 -34 -80 34 c-97 40 -146 88 -168 164 -9 29 -16
70 -16 90 0 73 -23 194 -45 239 l-22 45 329 0 c288 0 327 -2 322 -15z"/>
<path d="M1535 1400 c-16 -4 -53 -8 -82 -9 l-52 -1 14 -42 c8 -24 21 -102 29
-174 15 -134 33 -190 73 -226 18 -17 104 -58 151 -72 l22 -7 0 259 0 260 -44
11 c-49 12 -66 12 -111 1z m65 -154 c0 -41 -10 -76 -22 -76 -5 0 -8 32 -7 71
2 63 4 70 16 54 7 -11 13 -33 13 -49z m-23 -118 c-3 -7 -5 -2 -5 12 0 14 2 19
5 13 2 -7 2 -19 0 -25z"/>
<path d="M1738 1398 l-38 -10 0 -259 c0 -142 1 -259 3 -259 12 0 137 56 157
70 47 33 69 96 86 246 9 76 22 153 29 170 l13 31 -67 6 c-36 3 -84 8 -106 11
-22 3 -57 0 -77 -6z m59 -140 c-3 -8 -6 -5 -6 6 -1 11 2 17 5 13 3 -3 4 -12 1
-19z m123 -12 c0 -2 -7 -7 -16 -10 -8 -3 -12 -2 -9 4 6 10 25 14 25 6z m-123
-38 c-3 -8 -6 -5 -6 6 -1 11 2 17 5 13 3 -3 4 -12 1 -19z"/>
<path d="M1602 683 l3 -148 95 0 95 0 3 148 c3 164 5 159 -66 127 -43 -20 -44
-20 -82 0 -22 11 -42 20 -45 20 -3 0 -4 -66 -3 -147z"/>
<path d="M871 790 c-54 -13 -90 -72 -77 -123 3 -13 18 -36 32 -50 38 -38 119
-39 163 -1 58 49 50 143 -15 170 -37 15 -52 16 -103 4z m84 -45 c29 -29 33
-79 8 -107 -25 -28 -77 -24 -102 8 -60 76 27 167 94 99z"/>
<path d="M424 774 c7 -18 -39 -134 -60 -150 -26 -20 -15 -34 26 -34 28 0 40 4
40 14 0 8 -5 16 -11 18 -7 2 -7 12 0 31 14 37 56 38 65 1 4 -14 2 -32 -3 -38
-6 -7 -8 -16 -4 -19 11 -12 203 -8 203 4 0 6 -9 13 -20 16 -14 4 -20 14 -20
34 0 15 5 31 10 34 6 3 10 3 10 -2 0 -15 110 -104 120 -98 5 3 -13 35 -41 70
l-50 63 34 26 c19 14 39 26 45 26 7 0 12 5 12 11 0 6 -17 9 -42 7 -24 -2 -42
-7 -41 -13 2 -12 -36 -55 -49 -55 -14 0 -9 40 7 46 31 12 13 24 -35 24 -27 0
-50 -4 -50 -10 0 -5 7 -10 15 -10 12 0 15 -15 15 -76 l0 -75 -27 3 c-24 3 -31
12 -54 73 -15 39 -23 72 -18 73 25 10 4 22 -37 22 -38 0 -45 -3 -40 -16z m39
-54 c4 -15 0 -20 -14 -20 -17 0 -18 3 -9 20 6 11 12 20 14 20 2 0 6 -9 9 -20z"/>
<path d="M547 485 c-5 -11 -29 -15 -104 -17 -57 -2 -98 -7 -98 -13 0 -5 10
-11 23 -13 21 -3 22 -6 22 -128 l0 -124 -26 0 c-16 0 -24 -5 -22 -12 3 -9 31
-14 81 -16 64 -2 77 0 77 13 0 8 -9 15 -20 15 -18 0 -20 7 -20 60 0 33 3 60 8
60 28 -1 52 -15 52 -31 0 -11 7 -19 15 -19 12 0 15 13 15 55 0 53 -11 72 -24
40 -3 -10 -19 -15 -42 -15 -29 0 -35 3 -30 16 3 9 6 30 6 48 0 31 1 32 36 28
26 -3 38 -11 45 -29 14 -38 29 -17 29 43 0 51 -11 71 -23 39z"/>
<path d="M705 450 c-87 -43 -117 -151 -63 -222 73 -96 237 -90 305 11 30 44
31 120 3 166 -39 63 -164 86 -245 45z m129 -24 c56 -23 88 -126 57 -184 -17
-32 -67 -55 -105 -48 -41 8 -93 58 -101 97 -10 44 2 93 28 116 39 36 70 40
121 19z"/>
<path d="M1008 464 c-14 -13 -8 -24 12 -24 19 0 20 -7 20 -125 0 -120 -1 -125
-21 -125 -12 0 -19 -5 -16 -12 5 -18 149 -18 155 0 2 7 -6 12 -22 12 -25 0
-26 3 -26 55 0 32 4 55 11 55 6 0 43 -35 83 -77 54 -57 77 -75 89 -70 15 6 10
18 -38 86 -49 69 -53 80 -39 92 8 7 22 25 30 41 17 32 7 60 -27 79 -25 13
-201 25 -211 13z m142 -34 c14 0 40 -30 40 -46 0 -21 -37 -54 -60 -54 -18 0
-20 7 -20 56 0 47 3 55 16 50 9 -3 19 -6 24 -6z"/>
<path d="M1327 464 c-12 -12 -8 -24 8 -24 12 0 15 -17 15 -90 0 -145 33 -190
139 -190 94 0 131 57 131 203 0 64 3 77 16 77 9 0 14 6 12 13 -3 8 -25 12 -63
12 -38 0 -60 -4 -62 -12 -3 -8 4 -13 17 -13 21 0 22 -3 18 -111 -3 -96 -6
-113 -22 -125 -32 -23 -72 -17 -95 12 -18 23 -21 41 -21 125 0 94 1 99 21 99
12 0 19 5 17 13 -5 13 -119 23 -131 11z"/>
<path d="M1707 464 c-13 -14 -7 -24 14 -24 17 0 20 -4 15 -22 -3 -13 -16 -69
-28 -125 -17 -82 -25 -102 -41 -107 -36 -9 -6 -26 48 -26 55 0 84 17 46 27
-25 6 -26 24 -9 125 l11 71 41 -105 c23 -59 46 -107 51 -108 6 -1 30 46 55
104 l45 106 11 -49 c6 -27 15 -70 18 -95 7 -42 5 -46 -13 -46 -12 0 -21 -7
-21 -15 0 -13 12 -15 72 -13 46 2 73 7 76 16 2 7 -5 12 -16 12 -16 0 -22 16
-41 103 -13 56 -25 112 -28 125 -4 16 -1 22 12 22 9 0 15 6 13 13 -6 16 -97
22 -112 7 -8 -8 -7 -13 2 -19 9 -5 5 -26 -19 -84 -17 -42 -35 -77 -38 -77 -4
0 -18 30 -31 68 -13 37 -25 73 -28 80 -2 6 3 12 13 12 9 0 15 6 13 13 -5 13
-119 23 -131 11z"/>
</g>
</svg>
